# xmcd CD database file
#
# Track frame offsets:
#	150
#	12638
#	24783
#	36585
#	49610
#	63158
#	74323
#	86343
#	98703
#	111368
#	123428
#	135808
#	149210
#
# Disc length: 2158 seconds
#
# Revision: 1
# Processed by: cddbd v1.5.2PL0 Copyright (c) Steve Scherf et al.
# Submitted via: CDex 1.60beta1
#
DISCID=b0086c0d
DTITLE=Cowboy Copas - Tragic Tales Of Love And Life
DYEAR=1960
DGENRE=Country
TTITLE0=Tragic Romance
TTITLE1=It's Wrong To Love You But I Do
TTITLE2=Hangman's Boogie
TTITLE3=The Postman Just Passes Me By
TTITLE4=As Advertised
TTITLE5=Ashamed Of Myself
TTITLE6=The Party's Over
TTITLE7=Those Gone And Left Me Blues
TTITLE8=No More Roamin'
TTITLE9=Four Bare Walls And A Ceiling
TTITLE10=Three Strikes And You're Out
TTITLE11=An Old Farm For Sale
TTITLE12=Would Be Better For Both Of Us
EXTD=YEAR: 1960
EXTT0=
EXTT1=
EXTT2=
EXTT3=
EXTT4=
EXTT5=
EXTT6=
EXTT7=
EXTT8=
EXTT9=
EXTT10=
EXTT11=
EXTT12=
PLAYORDER=
